<?xml version="1.0" encoding="UTF-8" standalone="no"?><!DOCTYPE svg PUBLIC "-//W3C//DTD SVG 1.1//EN" "http://www.w3.org/Graphics/SVG/1.1/DTD/svg11.dtd"><svg width="100%" height="100%" viewBox="0 0 1280 1280" version="1.1" xmlns="http://www.w3.org/2000/svg" xmlns:xlink="http://www.w3.org/1999/xlink" xml:space="preserve" xmlns:serif="http://www.serif.com/" style="fill-rule:evenodd;clip-rule:evenodd;stroke-linejoin:round;stroke-miterlimit:2;"><g id="Group-3"><path id="Fill-1" d="M687.459,967.873l25.149,104.68c-14.106,16.427 -29.448,26.671 -45.518,31.93l-25.331,-126.722l-22.805,128.789c-17.624,-4.015 -34.493,-13.609 -49.935,-30.238l26.049,-108.439l-50.172,74.351c-12.215,-22.162 -23.05,-50.561 -31.993,-86.259l-25.141,-84c-19.396,71.305 -87.255,24.247 -109.323,-7.765c-78.557,-113.881 -118.549,-245.415 -124.911,-333.384c-0.655,13.719 -0.973,28.115 -0.918,43.234c0.327,86.781 40.164,232.025 125.829,356.232c18.932,27.466 77.657,96.448 106.188,70.363c-1.327,10.088 -5.427,20.076 -10.135,29.369l-50.162,98.899l0,-81.192c-7.626,1.216 -15.797,2.25 -24.495,3.11c-25.032,2.497 -54.744,3.594 -89.137,3.594l0,142.857l656.968,0l0,-142.857c-48.981,-1.097 -83.092,-2.762 -102.352,-4.975c-3.527,-0.348 -6.935,-0.759 -10.189,-1.217l0,80.68l-51.799,-102.101c-4.217,-8.314 -6.326,-14.817 -7.68,-24.411c29.249,20.881 85.519,-45.357 103.997,-72.119c85.656,-124.207 125.484,-269.451 125.82,-356.232c0.055,-15.119 -0.254,-29.515 -0.908,-43.234c-6.363,87.969 -46.373,219.503 -124.912,333.384c-22.077,32.012 -89.927,79.07 -109.332,7.765l-25.141,84c-8.471,33.805 -18.587,61.061 -29.966,82.655l-47.745,-70.747Zm491.483,-885.155l0,430.216l-150.206,0c0,-34.673 -2.355,-66.054 -7.035,-94.143l-73.84,129.055l51.371,-214.198c-15.733,-36.732 -38.91,-62.579 -70.413,-79.235l-57.161,178.125l-2.318,-197.533c-23.495,-4.08 -49.917,-5.442 -79.438,-4.409l0.3,485.113c0.036,44.14 -36.093,69.091 -67.005,48.274c-25.277,-17.021 -31.148,-62.387 0.527,-86.716l24.568,-4.665l13.324,7.71c5.772,-41.222 -15.951,-52.966 -47.481,-54.155c-98.825,-62.058 -197.697,41.305 -171.856,156.924c3.89,17.424 0.372,24.759 -10.28,27.603c-29.485,7.885 -44.182,-22.115 -44.182,-52.957l0.354,-527.131c-29.512,-1.033 -55.934,0.348 -79.429,4.427l-2.327,197.515l-57.161,-178.116c-31.512,16.656 -54.671,42.512 -70.404,79.253l51.353,214.171l-73.485,-128.433c-4.726,27.96 -7.09,59.131 -7.09,93.521l-148.57,0l0,-430.216l1077.88,0Z" style="fill:#ffdc00;"/></g></svg>